<?xml version="1.0" encoding="UTF-8"?>
<svg width="200px" height="200px" viewBox="0 0 200 200" version="1.1" xmlns="http://www.w3.org/2000/svg" xmlns:xlink="http://www.w3.org/1999/xlink">
    <!-- Generator: Sketch 54.1 (76490) - https://sketchapp.com -->
    <title>arcadia</title>
    <desc>Created with Sketch.</desc>
    <g id="arcadia" stroke="none" stroke-width="1" fill="none" fill-rule="evenodd">
        <g id="arcadia_BGL">
            <g id="arcadia" transform="translate(0.000000, 5.000000)">
                <g id="g10" transform="translate(100.000000, 95.908617) scale(-1, 1) rotate(-180.000000) translate(-100.000000, -95.908617) translate(0.000000, 0.963562)">
                    <g id="g12">
                        <path d="M189.568217,44.0974301 C192.441763,51.0403282 193.631682,55.9022869 193.631682,55.9022869 C193.583828,55.8970232 189.773054,60.9496469 189.412985,62.3369398 L192.103287,73.9850536 C208.224671,92.9603198 193.566321,100.854789 193.566321,100.854789 C193.830099,108.894303 186.806136,125.148206 175.538382,135.006057 C177.33464,141.733141 178.323807,150.609008 176.828677,161.359359 C175.250094,179.455577 156.999228,191.714872 129.294374,188.50047 C118.834295,187.45766 103.552682,184.76554 80.3040409,165.414792 C73.9634495,159.448029 57.2141338,163.113945 57.2141338,163.113945 C57.2141338,163.113945 62.1564687,156.41084 69.4442097,154.763284 C62.5906519,148.064273 46.01641,134.252754 24.0323861,132.062446 C6.91483169,130.356988 0.221758216,139.10594 0.221758216,139.10594 C0.221758216,139.10594 5.43837551,106.293421 50.3045523,110.576951 C49.9970059,109.128833 47.4117486,101.523871 51.4798815,90.0506308 C51.7360729,95.2997683 58.9899663,108.342193 72.0802384,118.225778 C75.1078489,120.500892 76.2364917,121.558907 81.7769956,124.283195 C91.52219,129.206564 103.428379,131.949567 117.221281,129.873892 C114.016262,127.258388 111.438008,124.660431 109.5618,122.490008 C109.546043,122.470707 102.177185,123.876716 96.8631097,115.398555 C94.7797308,112.075368 94.1027786,108.297744 94.1325411,105.100303 C94.2393362,101.978309 94.7855666,99.8447317 95.3977415,98.7253056 C95.698285,97.6216708 97.6351854,96.3893664 99.2715424,94.5868214 C100.627198,93.091329 101.778016,91.2022243 101.609362,88.8364571 C99.048615,81.9257264 98.678042,72.8972101 105.009296,66.5491167 C105.883109,65.6031998 107.79122,63.9962932 110.733628,61.728397 C109.952409,50.925966 109.5618,43.5353754 109.5618,39.556625 C109.5618,33.5884994 109.5618,32.3790838 117.221281,22.8413091 C124.880762,13.3035343 141.603691,1.78670741 149.316987,0.652950547 C165.666551,4.93740276 178.395463,21.7937299 186.949112,37.7388022 C187.924274,39.556625 188.541117,41.6629093 189.568217,44.0974301 Z" id="path30-path" fill="#160A06"></path>
                        <path d="M150.250715,7.14993611 C153.11609,8.62963725 175.418748,21.0439204 185.129512,53.5517261 L185.128344,53.5528958 C182.457885,58.9821708 182.457885,58.9821708 182.457885,58.9821708 C182.457885,58.9821708 176.74289,57.1258184 166.454967,58.9043841 C165.99569,58.9798313 165.737164,59.0312992 165.737164,59.0312992 L165.740666,59.0289597 C165.740666,59.0289597 160.077026,27.7148576 149.947253,6.99787197 C150.048796,7.04700038 150.149172,7.09963797 150.250715,7.14993611" id="path76" fill="#A7A5A6" fill-rule="nonzero"></path>
                        <path d="M171.969793,53.865797 L168.968444,53.8505906 C168.393035,53.8201778 167.833382,53.3288936 167.726003,52.7615774 L167.716666,52.7299948 C166.65922,47.3855249 163.394676,31.9551079 158.224745,17.1440598 L158.052589,16.4960326 C157.886269,15.9421682 158.107446,15.7959527 158.547465,16.1696796 L162.846695,20.0543337 C163.259286,20.4578885 163.730818,21.2416038 163.890719,21.7954682 C163.890719,21.7954682 165.795522,26.4790439 168.488742,35.2917462 C171.183128,44.1044485 172.750039,52.9943525 172.750039,52.9943525 C172.891849,53.5552353 172.541701,53.9476777 171.969793,53.865797" id="path78" fill="#160A06" fill-rule="nonzero"></path>
                        <path d="M180.415356,54.6641338 C179.465872,54.5056362 178.135895,54.3190652 176.4902,54.1857166 C176.305206,54.1681708 175.911873,54.0523681 175.810914,53.6312673 C174.493191,47.703105 171.923107,36.3427434 169.889332,28.6763709 C169.849649,28.5284008 169.94769,28.4810269 170.03406,28.6056026 C172.783303,32.5183301 174.970559,36.4649796 176.682782,40.0712394 C179.158326,45.6525785 180.472547,51.2374267 180.584011,54.5109 C180.587512,54.5728953 180.553665,54.7097531 180.415356,54.6641338" id="path80" fill="#160A06" fill-rule="nonzero"></path>
                        <path d="M156.076005,32.3153829 C151.395114,15.4912395 149.17226,12.431241 149.17226,12.431241 C149.005939,11.8803008 148.506979,11.727067 148.061124,12.0937755 L146.677457,13.2465387 C146.235104,13.618511 145.984165,14.3811712 146.117804,14.9438086 L153.720095,52.4516005 C153.819303,53.0212562 154.371953,53.5230679 154.946779,53.5669325 L160.079361,54.0207855 C160.653603,54.0769323 161.027678,53.6610953 160.908627,53.0943639 C160.908627,53.0943639 160.758647,49.1401112 156.076005,32.3153829 L156.076005,32.3153829 Z M141.115361,16.0334067 L139.489508,17.5476147 C139.070498,17.9447361 138.802635,18.7348848 138.896008,19.3051253 L144.201913,52.1006832 C144.28128,52.6732632 144.817006,53.1470015 145.394749,53.1540199 L149.800191,53.268068 C150.376184,53.2897079 150.766015,52.8411186 150.666807,52.2720478 L142.139543,16.3451382 C142.002985,15.7848403 141.542541,15.6438885 141.115361,16.0334067 L141.115361,16.0334067 Z M134.450883,20.8427278 L133.036286,22.3885184 C132.649956,22.8178071 132.39785,23.6389535 132.476633,24.2115335 L136.278654,52.3703046 C136.345182,52.9452241 136.868069,53.386795 137.443479,53.3517033 L140.835826,53.1961299 C141.412403,53.1791689 141.813906,52.6949031 141.729287,52.1234928 L135.382859,21.1029914 C135.264393,20.5374298 134.844799,20.4198725 134.450883,20.8427278 L134.450883,20.8427278 Z M128.941892,26.1725762 L127.193488,28.5944902 C126.864349,29.0693982 126.632668,29.9279758 126.681689,30.504065 L128.60575,53.352873 C128.644267,53.929547 129.142643,54.3219895 129.710466,54.226657 L132.620194,53.8026319 C133.190935,53.7283545 133.611695,53.1961299 133.55042,52.6217953 L129.72739,26.3749385 C129.642771,25.8023585 129.288538,25.7117049 128.941892,26.1725762 L128.941892,26.1725762 Z M160.555562,58.2610358 C143.017246,55.9139842 133.342665,57.3860821 127.945722,59.7337186 C122.034645,62.3030178 121.247396,65.9209748 120.866319,66.72633 C120.10183,68.3364553 118.08673,82.635749 114.695549,87.1812973 L114.69905,87.1696001 C115.642699,84.612583 120.160771,75.9566238 114.668121,65.1302413 C114.693215,35.2917462 114.668121,65.1302413 114.693215,35.2917462 C128.87478,16.8937388 143.15964,9.75432708 148.110145,7.69268815 C148.246703,7.63654139 148.374506,7.5839038 148.496475,7.5330208 L148.540827,7.51664466 C149.050292,7.31077319 149.434287,7.17040629 149.668302,7.08794073 L149.675889,7.08560128 C149.729578,7.06630083 149.77393,7.05167928 149.81303,7.03764259 L149.832288,7.03237883 L149.911071,7.00606004 L149.943752,6.99553252 L149.947253,6.99787197 C160.077026,27.7148576 165.740666,59.0289597 165.740666,59.0289597 C163.937405,58.7365287 162.214095,58.4826985 160.555562,58.2610358 L160.555562,58.2610358 Z" id="path82" fill="#656263" fill-rule="nonzero"></path>
                        <path d="M160.079361,54.0207855 L154.946779,53.5669325 C154.371953,53.5230679 153.819303,53.0212562 153.720095,52.4516005 L146.117804,14.9438086 C145.984165,14.3811712 146.235104,13.618511 146.677457,13.2465387 L148.061124,12.0937755 C148.506979,11.727067 149.005939,11.8803008 149.17226,12.431241 C149.17226,12.431241 151.395114,15.4912395 156.076005,32.3153829 C160.758647,49.1401112 160.908627,53.0943639 160.908627,53.0943639 C161.027678,53.6610953 160.653603,54.0769323 160.079361,54.0207855" id="path84" fill="#160A06" fill-rule="nonzero"></path>
                        <path d="M149.800191,53.268068 L145.394749,53.1540199 C144.817006,53.1470015 144.28128,52.6732632 144.201913,52.1006832 L138.896008,19.3051253 C138.802635,18.7348848 139.070498,17.9447361 139.489508,17.5476147 L141.115361,16.0334067 C141.542541,15.6438885 142.002985,15.7848403 142.139543,16.3451382 L150.666807,52.2720478 C150.766015,52.8411186 150.376184,53.2897079 149.800191,53.268068" id="path86" fill="#160A06" fill-rule="nonzero"></path>
                        <path d="M140.835826,53.1961299 L137.443479,53.3517033 C136.868069,53.386795 136.345182,52.9452241 136.278654,52.3703046 L132.476633,24.2115335 C132.39785,23.6389535 132.649956,22.8178071 133.036286,22.3885184 L134.450883,20.8427278 C134.844799,20.4198725 135.264393,20.5374298 135.382859,21.1029914 L141.729287,52.1234928 C141.813906,52.6949031 141.412403,53.1791689 140.835826,53.1961299" id="path88" fill="#160A06" fill-rule="nonzero"></path>
                        <path d="M132.620194,53.8026319 L129.710466,54.226657 C129.142643,54.3219895 128.644267,53.929547 128.60575,53.352873 L126.681689,30.504065 C126.632668,29.9279758 126.864349,29.0693982 127.193488,28.5944902 L128.941892,26.1725762 C129.288538,25.7117049 129.642771,25.8023585 129.72739,26.3749385 L133.55042,52.6217953 C133.611695,53.1961299 133.190935,53.7283545 132.620194,53.8026319" id="path90" fill="#160A06" fill-rule="nonzero"></path>
                        <path d="M163.4507,124.171486 C163.407515,123.41175 167.508328,122.904675 168.094242,123.791911 C174.171639,135.153442 185.960529,172.468229 152.41988,183.395793 C184.472985,168.364252 163.495052,124.932392 163.4507,124.171486" id="path92" fill="#B20D35" fill-rule="nonzero"></path>
                        <path d="M168.364439,120.492119 C169.250896,110.214922 169.42422,95.3102958 167.665895,74.0195605 L170.604217,77.6030106 C170.778708,79.6400853 173.719365,101.771852 171.234483,124.142828 C171.234483,124.142828 171.226313,124.183768 171.214058,124.248103 C171.025562,123.92058 170.836482,123.609434 170.654405,123.321682 C169.886998,121.872393 169.113172,120.986327 168.364439,120.492119" id="path94" fill="#A7A5A6" fill-rule="nonzero"></path>
                        <path d="M152.265815,129.219431 C133.48039,129.638192 121.518177,120.208461 126.136625,114.619518 L161.422761,79.5061519 C163.377752,112.684794 152.265815,129.219431 152.265815,129.219431" id="path98" fill="#656263" fill-rule="nonzero"></path>
                        <path d="M84.3949333,131.57935 C96.1692337,139.118222 108.791475,152.902837 126.824082,154.698949 C126.824082,154.698949 115.877298,152.522677 108.776302,144.337532 L101.306484,137.17882 C109.721701,139.077867 113.234266,138.140918 122.71043,133.907101 C126.32979,136.598636 130.608595,138.549736 134.478895,139.927087 C139.047155,141.553588 143.037672,142.376489 144.690953,142.67126 C144.846768,142.698748 144.989162,142.723897 145.105294,142.742028 C145.40292,146.186281 144.707876,153.332126 140.154205,159.324623 C144.596996,155.304866 147.78159,151.079822 149.316987,143.208163 C149.33216,143.128037 149.352586,143.05259 149.367175,142.971879 C149.367175,142.971879 152.280404,142.022063 154.299006,139.621204 C154.620558,140.700859 154.833565,141.952464 154.952031,143.309344 C155.302179,147.265351 154.837066,152.115028 153.800045,156.227778 C156.532948,151.64246 157.687852,146.837817 158.155299,143.074814 C158.624497,139.311812 158.405655,136.591618 158.395734,136.185139 C158.395734,136.185139 160.361813,132.463661 161.654442,127.660189 C161.654442,127.660189 163.785674,131.546597 165.344999,137.649634 C165.455295,138.079507 165.561507,138.523418 165.666551,138.975516 C165.820033,139.653371 165.968262,140.349942 166.103069,141.071662 C167.124333,146.557083 167.470979,153.281828 165.740666,160.386148 C161.472949,177.898089 149.507234,185.737581 129.783997,183.772444 C121.512925,182.948958 101.141915,178.181747 84.7427467,163.848532 L84.745081,163.847362 C84.6377024,163.749105 84.5309074,163.659036 84.4223616,163.566043 C81.1490641,160.732386 77.0033152,159.595414 73.6821642,159.168465 C70.3796877,158.743855 67.8930554,159.01874 67.8930554,159.01874 C67.8930554,159.01874 68.6598788,157.548982 71.4651456,156.81381 C72.7641936,156.473421 74.4980083,156.289774 76.7984788,156.483948 C78.1226207,156.595657 79.629423,156.828432 81.3492318,157.232572 C79.1065358,155.737079 76.9292006,154.915348 74.866247,154.581976 C74.855159,154.570279 53.5550902,131.113215 24.3521876,128.202356 C16.7271377,127.442035 14.0269153,127.781255 13.0955223,128.18481 C15.1759833,125.627793 24.9416029,115.602672 50.1971737,115.493302 C50.7364012,115.54711 51.2680421,115.617878 51.8002666,115.694495 C53.8206189,119.110674 56.1485176,122.636223 57.7008391,123.219916 C54.2051978,118.162613 52.3961013,111.581745 52.4369519,104.373904 L52.4369519,104.370395 C52.4509578,104.399053 58.2990081,116.351295 68.980264,121.995799 C74.0013822,124.776819 79.093697,128.18481 84.3972677,131.581689 L84.3949333,131.57935" id="path100" fill="#B20D35" fill-rule="nonzero"></path>
                        <path d="M175.489362,116.868313 L175.487027,116.88001 C176.357728,101.128504 173.072759,84.9523878 172.373047,79.7710944 L181.639706,90.7524654 C184.031215,102.829868 177.888457,113.33984 175.489362,116.868313" id="path102" fill="#A7A5A6" fill-rule="nonzero"></path>
                        <path d="M188.541117,91.398738 C188.541117,91.398738 194.700799,84.8974108 184.776446,76.108103 C186.245316,79.454684 186.51668,81.8567127 186.291418,83.5510582 C186.187541,83.4779505 186.123931,83.4364253 186.123931,83.4364253 L181.367174,80.3887088 L185.672241,85.0383626 C185.7341,85.1032823 185.783121,85.1617685 185.839728,85.2243487 C185.3396,86.3794514 184.630551,86.9280521 184.362688,87.1070199 L167.462809,69.745973 C167.462809,69.745973 168.688326,67.956295 167.721335,63.7476272 L184.307832,75.6934358 C194.909137,84.6932939 188.541117,91.398738 188.541117,91.398738" id="path106" fill="#A7A5A6" fill-rule="nonzero"></path>
                        <path d="M188.541117,91.398738 L184.362688,87.1070199 C184.630551,86.9280521 185.3396,86.3794514 185.839728,85.2243487 C185.783121,85.1617685 185.7341,85.1032823 185.672241,85.0383626 L181.367174,80.3887088 L186.123931,83.4364253 C186.123931,83.4364253 186.187541,83.4779505 186.291418,83.5510582 C186.51668,81.8567127 186.245316,79.454684 184.776446,76.108103 C194.700799,84.8974108 188.541117,91.398738 188.541117,91.398738" id="path108" fill="#E9E9E9" fill-rule="nonzero"></path>
                        <path d="M106.320016,75.2156035 C106.843487,72.2111668 108.562128,69.9758238 111.294448,69.0341958 C111.777651,68.8704344 112.285949,68.7429345 112.828678,68.6633933 C113.106462,68.6195286 113.391832,68.5844369 113.683622,68.5680607 C113.683622,68.5680607 115.060286,72.1439077 114.979169,76.8023344 C114.908556,80.7337775 113.888459,84.1710121 113.516135,85.1494864 C113.446105,85.3331331 113.400586,85.4319748 113.382495,85.4331445 C112.894623,85.4746697 111.765396,85.2617799 110.992153,84.8933168 C110.902282,84.8517916 110.814745,84.8067572 110.733628,84.7587985 C110.733628,84.7587985 110.852094,84.6897848 111.04701,84.5459087 C111.562311,84.1698423 112.59583,83.2662304 113.37024,81.7017242 C113.839438,80.7554174 114.214679,79.573411 114.313888,78.1147649 C114.118972,78.7084 113.762989,79.454684 113.310715,80.1933649 C112.751062,81.0993163 112.04318,81.9959099 111.286277,82.6082605 C110.261512,83.4352555 109.148042,83.7393838 108.189805,82.8357719 C107.77488,82.5626413 106.045733,80.052998 106.157197,76.8046738 C106.176455,76.2543186 106.232479,75.7238486 106.320016,75.2156035" id="path110" fill="#656263" fill-rule="nonzero"></path>
                        <path d="M30.6163302,127.125625 C29.4602591,127.125625 28.3036045,127.184111 27.1539529,127.305762 C48.2894522,127.859627 66.9663311,143.892452 76.0164822,153.143801 C76.8959366,153.40231 77.7911475,153.762585 78.6956958,154.234568 C71.0239595,144.436958 50.5315647,127.124455 30.6163302,127.125625" id="path112" fill="#E7A4A6" fill-rule="nonzero"></path>
                        <path d="M52.4369519,104.370395 L52.4369519,104.373904 C52.4369519,104.456954 52.4363683,104.53942 52.4363683,104.62247 C52.4387026,111.734394 54.2460484,118.221099 57.7008391,123.219916 L57.7008391,123.219916 L57.7008391,123.219916 L57.7008391,123.219916 L57.7008391,123.219916 C56.1485176,122.636223 53.8206189,119.110674 51.8002666,115.694495 C51.2680421,115.617878 50.7364012,115.54711 50.1971737,115.493302 C50.1726633,115.493302 50.1487366,115.493302 50.1242262,115.493302 C50.1137218,115.493887 50.1026338,115.493887 50.0921294,115.493887 C50.0781235,115.493887 50.0641175,115.493887 50.0501116,115.493887 C50.0425251,115.493887 50.0372729,115.493887 50.0296864,115.493887 C50.0110118,115.494472 49.9952552,115.494472 49.9765806,115.494472 C49.9701612,115.494472 49.9654926,115.494472 49.9596568,115.494472 C49.9409823,115.494472 49.9211406,115.495057 49.9030496,115.495057 C49.898381,115.495057 49.8942959,115.495057 49.8896273,115.495057 C49.8697856,115.495057 49.8493603,115.495642 49.8295186,115.495642 C49.8260171,115.495642 49.8195977,115.495642 49.8160963,115.495642 C49.7962546,115.495642 49.7758293,115.496227 49.7559876,115.496227 C49.7524861,115.496227 49.7495682,115.496227 49.7460667,115.496227 C49.7250579,115.496227 49.7034654,115.496811 49.681873,115.496811 C49.6807058,115.496811 49.6795386,115.496811 49.6777879,115.496811 C49.6550283,115.497396 49.6322687,115.497396 49.6089255,115.497396 C49.6060076,115.497396 49.6025062,115.497396 49.5995883,115.497981 C49.5785794,115.497981 49.5569869,115.497981 49.5353945,115.498566 C49.5342273,115.498566 49.5324766,115.498566 49.5313095,115.498566 C49.5079663,115.498566 49.4852067,115.499151 49.4624471,115.499151 C49.4606963,115.499151 49.4606963,115.499151 49.4589456,115.499151 C27.0564951,115.771112 17.0767018,123.897771 13.8751846,127.298744 C13.5804769,127.61223 13.3435436,127.884776 13.1597161,128.107608 C14.5614741,127.467769 25.7352711,122.553758 38.1445059,122.554343 C44.5020212,122.554343 51.1851738,123.844548 57.0419778,127.660189 C57.0419778,127.660189 94.6455075,162.608039 131.493302,162.608039 C132.944664,162.608039 134.39661,162.553647 135.843303,162.441353 C137.425388,161.710276 138.846987,160.494348 140.154205,159.324623 C144.129549,154.093032 145.164236,147.981808 145.164819,144.222899 C145.164819,143.676053 145.143227,143.17892 145.105294,142.742028 C144.989162,142.723897 144.846768,142.698748 144.690953,142.67126 C143.037672,142.376489 139.047155,141.553588 134.478895,139.927087 C130.608595,138.549736 126.32979,136.598636 122.71043,133.907101 C122.653823,133.932835 122.596632,133.957984 122.540608,133.983133 C122.531271,133.987227 122.523685,133.990736 122.514347,133.99483 C122.45774,134.019979 122.401133,134.045128 122.344526,134.070277 C122.328769,134.077296 122.312429,134.084899 122.296672,134.091917 C116.166169,136.81796 112.556146,138.115184 108.356125,138.115769 C108.354958,138.115769 108.35379,138.115769 108.352623,138.115769 L108.352623,138.115769 C106.274497,138.115769 104.050475,137.798189 101.306484,137.17882 L108.776302,144.337532 C115.877298,152.522677 126.824082,154.698949 126.824082,154.698949 L126.824082,154.698949 L126.824082,154.698949 C108.791475,152.902837 96.1692337,139.118222 84.3949333,131.57935 L84.3972677,131.581689 L84.3972677,131.581689 L84.3972677,131.581689 C79.093697,128.18481 74.0013822,124.776819 68.980264,121.995799 L68.980264,121.995799 C58.2990081,116.351295 52.4509578,104.399053 52.4369519,104.370395" id="path118" fill="#6A061A" fill-rule="nonzero"></path>
                        <path d="M57.0419778,127.660189 C57.0419778,127.660189 97.6678659,165.416547 135.843303,162.441353 C99.8510368,175.991439 57.0419778,127.660189 57.0419778,127.660189" id="path120" fill="#160A06" fill-rule="nonzero"></path>
                        <path d="M114.694382,87.1836368 C118.089647,82.6380885 120.106498,68.3364553 120.86982,66.72633 C121.632559,65.1150348 124.025818,52.2539171 165.73483,59.0289597 L165.737164,59.0312992 C165.737164,59.0312992 131.498554,57.5691439 126.577812,65.2600806 C121.656485,72.9504325 119.690406,84.6728238 114.693215,87.1848065 L114.696716,87.1777882 L114.694382,87.1836368" id="path122" fill="#D3D2D2" fill-rule="nonzero"></path>
                        <path d="M165.737164,59.0312992 C165.737164,59.0312992 179.046862,58.3160128 182.735085,61.8345433 C187.924274,54.3477234 187.924274,54.3477234 187.924274,54.3477234 C187.924274,54.3477234 179.142569,20.7298494 149.943752,6.99553252 C149.943752,6.99553252 174.742963,18.7787494 185.129512,53.5517261 C182.457885,58.9821708 182.457885,58.9821708 182.457885,58.9821708 C182.457885,58.9821708 176.478529,57.0357497 165.737164,59.0312992" id="path124" fill="#E9E9E9" fill-rule="nonzero"></path>
                        <path d="M111.765396,103.680842 C111.220333,102.476611 113.406422,100.80449 113.406422,100.80449 L141.233827,85.4483509 C141.233827,85.4483509 119.498408,103.523514 117.067216,105.369924 C114.634273,107.215164 115.083046,108.288971 115.083046,108.288971 C115.101137,109.941791 113.275116,109.155736 113.275116,109.155736 C109.558299,107.350852 108.737786,103.56504 108.737786,103.56504 C112.78666,106.921563 111.765396,103.680842 111.765396,103.680842" id="path126" fill="#D3D2D2" fill-rule="nonzero"></path>
                        <path d="M113.406422,100.80449 C113.406422,100.80449 111.220333,102.476611 111.765396,103.680842 C111.765396,103.680842 112.78666,106.921563 108.737786,103.56504 C108.737786,103.56504 109.558299,107.350852 113.275116,109.155736 C113.275116,109.155736 115.101137,109.941791 115.083046,108.288971 C115.083046,108.288971 114.634273,107.215164 117.067216,105.369924 C119.498408,103.523514 141.233827,85.4483509 141.233827,85.4483509 L113.406422,100.80449 Z M167.462809,69.745973 L116.072213,112.238545 C116.072213,112.238545 108.666005,118.416443 104.351602,109.045782 C100.460294,100.587507 107.700765,97.2678293 107.700765,97.2678293 L167.721335,63.7476272 C168.688326,67.956295 167.462809,69.745973 167.462809,69.745973 L167.462809,69.745973 Z" id="path128" fill="#656263" fill-rule="nonzero"></path>
                        <path d="M181.639706,90.7518805 L186.949112,97.0438271 C186.637481,101.092243 185.755692,111.519164 175.163141,120.9951 C175.307868,119.628277 175.412913,118.250927 175.489362,116.868313 C177.888457,113.33984 184.031215,102.828698 181.639706,90.7518805" id="path130" fill="#E9E9E9" fill-rule="nonzero"></path>
                        <path d="M185.116089,74.6699271 L174.42608,66.9906876 C174.42608,66.9906876 182.546005,67.4340131 184.252975,70.1676586 C185.967532,72.9001344 185.116089,74.6699271 185.116089,74.6699271" id="path132" fill="#FFFFFF" fill-rule="nonzero"></path>
                        <path d="M131.539405,81.2753598 L151.854391,69.7301817 C151.854391,69.7301817 137.434725,68.9885766 133.899984,73.4908451 C130.367577,77.991359 131.539405,81.2753598 131.539405,81.2753598" id="path134" fill="#FFFFFF" fill-rule="nonzero"></path>
                        <path d="M159.554723,153.605257 C159.554723,153.605257 157.611403,167.823839 146.365242,174.52168 C142.108613,177.251817 136.421047,177.819133 132.42878,177.819133 C129.589665,177.819133 127.608413,177.531966 127.608413,177.531966 C127.608413,177.531966 108.840496,175.990854 90.7343576,163.83625 C105.797129,177.00325 124.648498,179.753857 132.247287,180.511253 C133.343249,180.620622 134.403029,180.672675 135.425461,180.672675 C151.304659,180.672675 158.394567,168.061293 159.194654,159.991951 C159.436256,157.554246 159.542468,155.43646 159.554723,153.605257" id="path142" fill="#E7A4A6" fill-rule="nonzero"></path>
                    </g>
                </g>
            </g>
        </g>
    </g>
</svg>